<?xml version="1.0" encoding="utf-8"?>
<!-- Generator: Adobe Illustrator 25.4.1, SVG Export Plug-In . SVG Version: 6.00 Build 0)  -->
<svg version="1.1" id="Layer_2" xmlns="http://www.w3.org/2000/svg" xmlns:xlink="http://www.w3.org/1999/xlink" x="0px" y="0px"
	 viewBox="0 0 3000 3000" style="enable-background:new 0 0 3000 3000;" xml:space="preserve">
<style type="text/css">
	.st0{fill:#231F20;}
	.st1{fill:#FFFFFF;}
	.st2{font-family:'Lobster-Regular';}
	.st3{font-size:316.2442px;}
</style>
<g>
	<path class="st0" d="M235.3,1592.88c0,0,54.11,35.68,33.89,220.6l60.65-11.89c0,0,3.57-198.6-62.43-236.06L235.3,1592.88z"/>
	<path class="st0" d="M369.08,1457.16c0,0-117.73,128.43-154.6,148.65l10.11,33.3c0,0,106.43-68.97,140.33-110l29.14,54.11
		l27.95-17.84C422,1565.38,384.54,1470.24,369.08,1457.16z"/>
	<path class="st0" d="M322.78,1693.36c0,0,78.41-32.69,96.25-45.77h5.35l8.92,29.73l-106.99,45.89L322.78,1693.36z"/>
	<path class="st0" d="M329.78,1785.51l126.71-32.08l-8.32-30.22l39.84-13.19c0,0,20.22,47.57,17.24,54.11l-175.41,37.46"/>
	<path class="st0" d="M269.19,1813.48l-50.54,9.51h-14.27c0,0,4.16-21.41,64.81-21.41l10.7-2.97L269.19,1813.48z"/>
	<path class="st0" d="M557.57,1271.8c0,0,23.19,4.16,76.7,57.68l22,98.7l-35.08,20.22l-20.81-61.24l-37.46-27.05l-60.65,49.05
		l-6.54,55.89l34.49,78.49l26.16,10.7l79.08-44.6l66.6,38.49l46.38,99.46l-19.62,54.11l-103.46,29.73l-63.03-17.24l-20.81-43.41
		l35.08-13.68l13.68,28.3l31.81,12.14l72.84-19.62l9.51-27.95l-32.7-68.38l-30.32-15.46l-70.76,40.43l-4.76,2.38l-60.35-24.97
		l-50.25-105.24l5.35-116.54L557.57,1271.8z"/>
	<path class="st0" d="M943.47,1006.01l-176.6,104.06l-53.51,151.03c0,0,1.78,145.08,89.79,359.14l67.19,40.43l124.27-27.35
		l27.35-64.81c0,0-61.24-183.73-26.16-460.22L943.47,1006.01z"/>
	<path class="st1" d="M792.44,1195.09l110.6-64.22l30.92,49.35c0,0-5.35,318.11,36.87,375.79l-10.11,38.65l-85.03,23.78
		l-38.65-22.59c0,0-67.78-180.16-73.14-328.82L792.44,1195.09z"/>
	<path class="st0" d="M1086.2,939.2c0,0-47.65,223.95-40.5,254.93l45.27-13.5c0,0,12.71-127.86,23.03-141.36
		c0,0,49.24-23.82,89.74-26.21c0,0-73.86,269.22-27,537.65l-46.86,7.94c0,0,3.18,33.35,12.71,42.88l143.74-13.5l-7.94-51.62
		l-51.62,3.97c0,0-49.24-262.07,41.3-541.62c0,0,67.5-7.94,90.53-5.56c0,0-40.5,130.24-34.94,142.15l46.86-4.76
		c0,0,2.38-41.3,73.86-246.98v-6.35C1444.37,877.26,1194.21,882.02,1086.2,939.2z"/>
	<path class="st0" d="M1509.32,882.03c0,0-42.81,100.91-38.73,116.19h38.73c0,0-95.81,216.08-82.56,526.95h-33.64l8.15,49.94h259.91
		c0,0-13.25-100.91-6.12-122.31l-48.92-1.02l5.1,73.39l-130.46,1.02c0,0-13.25-95.81,1.02-184.48l133.52,9.17l10.19-68.29
		l-132.5-8.15c0,0,39.75-194.68,73.39-270.1c0,0,120.27,14.27,133.52,31.6l-40.77,118.23l45.87,11.21c0,0,59.12-169.19,81.54-204.87
		C1786.56,960.51,1646.92,899.36,1509.32,882.03z"/>
	<path class="st0" d="M1873.19,999.24l-36.69,82.56l36.69,7.13c0,0-96.83,241.56-86.64,445.41h-34.65v45.87
		c0,0,115.17,11.21,131.48,19.37v-51.98l-37.71-6.12c0,0-1.02-102.94,5.1-148.81l89.69,14.27l53,159l-21.4-4.08
		c0,0-5.1,38.73-1.02,50.96c0,0,97.85,21.4,115.17,31.6v-54.02l-31.6-9.17l-56.06-166.14l78.48-59.12l44.85-156.96l-28.54-110.08
		L1873.19,999.24z"/>
	<path class="st1" d="M1929.25,1112.38c0,0-43.94,102.98-63.19,220.16c0,0,96.83,10.19,110.08,19.37l48.92-30.07l33.64-107.53
		l-14.27-58.1L1929.25,1112.38z"/>
	<path class="st0" d="M2296.18,1220.42c0,0-62.17,156.96-77.46,411.77l-50.96-17.33v57.08c0,0,138.62,53,149.83,70.33l7.13-56.06
		c0,0-22.42-17.33-48.92-24.46c0,0,35.67-337.37,82.56-425.02l53,17.33l18.35-53l-162.06-49.94c0,0-22.42,45.87-20.39,56.06
		L2296.18,1220.42z"/>
	<path class="st0" d="M2606.03,1253.03l-100.91,56.06c0,0-91.73,371-85.62,404.64l42.81,130.46c0,0,134.54,125.37,135.56,149.83
		l81.54-12.23l34.65-102.94l-47.9-58.1l-15.29,65.23l-51.98,13.25c0,0-70.33-86.64-97.85-99.89l-19.37-57.08l84.96-382.22
		l41.43-23.44l120.27,70.33l25.48,88.67l-20.39,77.46l48.92,56.06l37.71-116.19l-39.75-163.08L2606.03,1253.03z"/>
</g>
<text transform="matrix(1 0 0 1 835.4624 1900.025)" class="st2 st3">Art Studio</text>
</svg>
