<?xml version="1.0" encoding="utf-8"?>
<!-- Generator: Adobe Illustrator 26.2.0, SVG Export Plug-In . SVG Version: 6.00 Build 0)  -->
<svg version="1.1" id="a" xmlns="http://www.w3.org/2000/svg" xmlns:xlink="http://www.w3.org/1999/xlink" x="0px" y="0px"
	 viewBox="0 0 522.7 331" style="enable-background:new 0 0 522.7 331;" xml:space="preserve">
<style type="text/css">
	.st0{fill:#231F20;}
</style>
<path class="st0" d="M259.7,331v-14.6c30.7,0,46-10.9,46-32.6V57.2c0-28.3-16.7-42.5-50-42.5V0h263l4,95.7l-15.5,2
	c-3-18.4-7.5-32.7-13.5-43S480.4,36.9,471.9,32c-8.5-4.9-18.3-7.8-29.3-8.7c-11-0.8-23-1.3-36-1.3h-14c-25.3,0-38,7.7-38,23v88
	c0,10,4,15,12.1,15h17.1c8.4,0,16.2-0.4,23.4-1.2c7.2-0.8,13.6-3,19.1-6.5s10-8.8,13.6-16c3.5-7.2,5.9-16.9,7.3-29.2h18.6v130h-18.6
	c-1.3-12.3-3.4-22.1-6-29.2c-2.7-7.2-6.5-12.7-11.6-16.5c-5-3.8-11.2-6.3-18.6-7.5c-7.4-1.2-16.4-1.8-27.1-1.8h-6
	c-15.4,0-23.1,5.5-23.1,16.5v95c0,19,13.3,28.5,39.8,28.5h15.4c20.4-1.8,19.9-2.3,32.6-5.5c12.8-3.2,21.2-7.5,29.2-14.3
	c8-6.8,16.3-14.8,21.1-25.2c4.8-10.3,8.7-22.8,13.7-36.8l16.3,3.9l-4.9,98.9L259.7,331L259.7,331z"/>
<path class="st0" d="M6.2,331L0,232.4l15.6-4.2c5,14,11,26.5,15.8,36.9c4.8,10.3,13.2,18.4,21.2,25.2c8,6.8,16.5,11.2,29.3,14.3
	c12.8,3.2,12.2,3.6,32.8,5.5h15c26.7,0,40-9.5,40-28.5v-95c0-11-7.6-16.5-22.9-16.5h-6c-10.6,0-19.6,0.6-26.9,1.8
	c-7.3,1.2-13.4,3.7-18.4,7.5c-5,3.8-8.8,9.3-11.4,16.5c-2.7,7.2-4.6,16.9-6,29.2H59.7V95h18.5c1.3,12.3,3.8,22.1,7.2,29.2
	c3.5,7.2,8,12.5,13.5,16s11.8,5.7,19,6.5c7.2,0.8,14.9,1.2,23.3,1.2h16.6c7.9,0,11.9-5,11.9-14.9V44.3c0-14.9-12.6-22.3-37.7-22.3
	h-14.8c-13.1,0-25.3,0.4-36.4,1.3c-11.1,0.9-21,3.8-29.5,8.7c-8.6,4.9-15.9,12.5-22,22.8s-10.6,24.6-13.6,43L0,95.7L4,0h265.7v15.3
	c-33.3,0-50,14.3-50,43v225c0,21.7,15.3,32.6,46,32.6v15C265.7,331,6.2,331,6.2,331z"/>
</svg>
