<?xml version="1.0" encoding="utf-8"?>
<!-- Generator: Adobe Illustrator 26.5.0, SVG Export Plug-In . SVG Version: 6.00 Build 0)  -->
<svg version="1.1" id="Layer_1" xmlns="http://www.w3.org/2000/svg" xmlns:xlink="http://www.w3.org/1999/xlink" x="0px" y="0px"
	 viewBox="0 0 455 455" style="enable-background:new 0 0 455 455;" xml:space="preserve">
<style type="text/css">
	.st0{fill-rule:evenodd;clip-rule:evenodd;fill:#FFFFFF;}
</style>
<g>
	<path class="st0" d="M246.4,204.4v-0.7c-0.1,0.2-0.3,0.4-0.4,0.7H246.4z"/>
	<path class="st0" d="M0,0v455h455V0H0z M141.5,378H74V174.9h67.5V378z M107.8,147.2h-0.4c-22.6,0-37.3-15.6-37.3-35.1
		C70,92.2,85.1,77,108.2,77c23.1,0,37.3,15.2,37.8,35.1C146,131.6,131.3,147.2,107.8,147.2z M385,378h-67.5V269.3
		c0-27.3-9.8-45.9-34.2-45.9c-18.7,0-29.8,12.5-34.6,24.7c-1.8,4.3-2.2,10.4-2.2,16.5V378h-67.5c0,0,0.9-184,0-203.1h67.5v28.8
		c9-13.8,25-33.5,60.9-33.5c44.4,0,77.7,29,77.7,91.4V378z"/>
</g>
</svg>
