<?xml version="1.0" encoding="utf-8"?>
<!-- Generator: Adobe Illustrator 26.3.1, SVG Export Plug-In . SVG Version: 6.00 Build 0)  -->
<svg version="1.1" xmlns="http://www.w3.org/2000/svg" xmlns:xlink="http://www.w3.org/1999/xlink" x="0px" y="0px"
	 viewBox="0 0 250.33 270.23" style="enable-background:new 0 0 250.33 270.23;" xml:space="preserve">
<style type="text/css">
	.st0{display:none;opacity:0.35;}
	.st1{display:inline;fill:#FFFFFF;stroke:#000000;stroke-miterlimit:10;}
	.st2{display:none;}
	.st3{display:inline;fill:#2E3192;stroke:#000000;stroke-linecap:round;stroke-linejoin:round;stroke-miterlimit:10;}
	.st4{fill:#444545;}
</style>
<g id="Layer_1" class="st0">
	<rect x="-25.27" y="-2" class="st1" width="274.14" height="274.14"/>
	<line class="st1" x1="-25.27" y1="135.07" x2="248.87" y2="135.07"/>
	<line class="st1" x1="111.8" y1="-2" x2="111.8" y2="272.14"/>
	<line class="st1" x1="-25.27" y1="64.17" x2="248.87" y2="64.17"/>
	<line class="st1" x1="-25.27" y1="205.96" x2="248.87" y2="205.96"/>
</g>
<g id="Layer_4" class="st2">
	<rect x="-72.59" y="-37.75" class="st3" width="399.18" height="372.97"/>
</g>
<g id="Layer_2">
	<path class="st4" d="M171.43,64.17"/>
	<g>
		<path class="st4" d="M0,1.98v133.98c0,1.1,0.89,1.99,1.99,1.99h80.15c1.1,0,1.99-0.89,1.99-1.99v-60.4c0-1.47-1.54-2.43-2.86-1.79
			L44.78,91.55c-1.28,0.63-2.79-0.27-2.85-1.7L37.99,1.89C37.94,0.83,37.07,0,36.01,0H1.99C0.89,0,0,0.89,0,1.98z"/>
	</g>
	<path class="st4" d="M49.53,2.06l2.57,71.3c0.05,1.48,1.64,2.38,2.94,1.67l28.05-15.37c0.64-0.35,1.03-1.02,1.03-1.74V1.99
		c0-1.1-0.89-1.99-1.99-1.99H51.52C50.39,0,49.49,0.93,49.53,2.06z M70.93,44.86l-5.07,2.05c-1.27,0.51-2.66-0.38-2.73-1.74
		l-1.61-32.3c-0.06-1.13,0.85-2.08,1.98-2.08h6.68c1.1,0,1.99,0.89,1.99,1.99v30.25C72.17,43.83,71.68,44.56,70.93,44.86z"/>
	<path class="st4" d="M93.7,1.98v128.31c0,1.1,0.89,1.99,1.99,1.99h42.11c1.1,0,1.99-0.89,1.99-1.99V1.98c0-1.1-0.89-1.99-1.99-1.99
		h-13.52c-1.1,0-1.99,0.89-1.99,1.99v56.47c0,0.82-0.5,1.55-1.26,1.85l-1.58,0.62c-1.3,0.51-2.71-0.45-2.71-1.85V1.98
		c0-1.1-0.89-1.99-1.99-1.99H95.69C94.59,0,93.7,0.89,93.7,1.98z"/>
	<path class="st4" d="M148.73,1.98v24.16c0,1.1,0.89,1.99,1.99,1.99h18.73c1.1,0,1.99-0.89,1.99-1.99V1.98
		c0-1.1-0.89-1.99-1.99-1.99h-18.73C149.62,0,148.73,0.89,148.73,1.98z"/>
	<path class="st4" d="M148.73,36.15v74.39c0,1.1,0.89,1.99,1.99,1.99h18.73c1.1,0,1.99-0.89,1.99-1.99V36.15
		c0-1.1-0.89-1.99-1.99-1.99h-18.73C149.62,34.16,148.73,35.05,148.73,36.15z"/>
	<path class="st4" d="M181.47,1.98v35.76c0,1.1,0.89,1.99,1.99,1.99h35.76c1.1,0,1.99,0.89,1.99,1.99v13.57
		c0,2.16-2.96,2.77-3.81,0.78l-4.4-10.3c-0.31-0.73-1.03-1.21-1.83-1.21h-27.7c-1.1,0-1.99,0.89-1.99,1.99v63.99
		c0,1.1,0.89,1.99,1.99,1.99h65.88c1.1,0,1.99-0.89,1.99-1.99V26.86c0-1.1-0.89-1.99-1.99-1.99h-45.5c-1.04,0-1.9-0.8-1.98-1.84
		l-0.14-1.97c-0.08-1.15,0.83-2.13,1.98-2.13h45.65c1.1,0,1.99-0.89,1.99-1.99V1.98c0-1.1-0.89-1.99-1.99-1.99h-65.88
		C182.36,0,181.47,0.89,181.47,1.98z"/>
	<path class="st4" d="M1.99,148.73h24.19c1.1,0,1.99,0.89,1.99,1.99v76.43c0,1.1,0.89,1.99,1.99,1.99h0c1.1,0,1.99-0.89,1.99-1.99
		v-76.43c0-1.1,0.89-1.99,1.99-1.99h16.61c1.1,0,1.99,0.89,1.99,1.99v76.43c0,1.1,0.89,1.99,1.99,1.99h0.36
		c1.1,0,1.99-0.89,1.99-1.99v-76.43c0-1.1,0.89-1.99,1.99-1.99h23.11c1.1,0,1.99,0.89,1.99,1.99v117.52c0,1.1-0.89,1.99-1.99,1.99
		H1.99c-1.1,0-1.99-0.89-1.99-1.99V150.72C0,149.62,0.89,148.73,1.99,148.73z"/>
	<path class="st4" d="M93.7,146.35v42.55c0,1.1,0.89,1.99,1.99,1.99h25.42c1.1,0,1.99,0.89,1.99,1.99v32.8
		c0,1.1-0.89,1.99-1.99,1.99h-0.56c-1.1,0-1.99-0.89-1.99-1.99v-27.4c0-1.1-0.89-1.99-1.99-1.99H95.69c-1.1,0-1.99,0.89-1.99,1.99
		v69.97c0,1.1,0.89,1.99,1.99,1.99h42.11c1.1,0,1.99-0.89,1.99-1.99V146.35c0-1.1-0.89-1.99-1.99-1.99h-11.63
		c-1.1,0-1.99,0.89-1.99,1.99v22.61c0,1.1-0.89,1.99-1.99,1.99h-1.65c-1.1,0-1.99-0.89-1.99-1.99v-22.61c0-1.1-0.89-1.99-1.99-1.99
		H95.69C94.59,144.36,93.7,145.25,93.7,146.35z"/>
	<path class="st4" d="M155.51,121.72h93.82c1.1,0,1.99,0.89,1.99,1.99v19.06c0,1.1-0.89,1.99-1.99,1.99h-40.96
		c-1.1,0-1.99,0.89-1.99,1.99l0.4,121.49c0,1.1-0.89,1.99-1.99,1.99h-18.08c-1.1,0-1.99-0.89-1.99-1.99V146.25
		c0-1.1-0.89-1.99-1.99-1.99h-27.24c-1.1,0-1.99-0.89-1.99-1.99V123.7C153.53,122.61,154.42,121.72,155.51,121.72z"/>
	<path class="st4" d="M148.73,157.97v110.39c0,1.03,0.89,1.86,1.99,1.86h22.73c1.1,0,1.99-0.83,1.99-1.86v-53.34
		c0-1.03-0.89-1.86-1.99-1.86h-9.38c-1.1,0-1.99-0.83-1.99-1.86v-7.51c0-1.03,0.89-1.86,1.99-1.86h9.38c1.1,0,1.99-0.83,1.99-1.86
		v-6.85c0-1.03-0.89-1.86-1.99-1.86h-9.38c-1.1,0-1.99-0.83-1.99-1.86v-10.66c0-1.03,0.89-1.86,1.99-1.86h9.38
		c1.1,0,1.99-0.83,1.99-1.86v-17.15c0-1.03-0.89-1.86-1.99-1.86h-22.73C149.62,156.11,148.73,156.95,148.73,157.97z"/>
	<path class="st4" d="M208.1,162.83"/>
	<path class="st4" d="M227,156.11h-8.62c-1.1,0-1.99,0.83-1.99,1.86v110.39c0,1.03,0.89,1.86,1.99,1.86h8.65
		c1.1,0,1.99-0.83,1.99-1.86v-53.34c0-1.03,0.89-1.86,1.99-1.86h3.66c1.1,0,1.99,0.83,1.99,1.86v53.34c0,1.03,0.89,1.86,1.99,1.86
		h10.7c1.1,0,1.99-0.83,1.99-1.86v-87.04c0-1.04-0.91-1.88-2.03-1.86l-18.58,0.36c-1.12,0.02-2.04-0.83-2.03-1.89l0.31-19.94
		C229,156.96,228.11,156.11,227,156.11z"/>
</g>
<g id="Layer_3">
</g>
</svg>
